<?xml version="1.0" encoding="utf-8"?>
<!-- Generator: Adobe Illustrator 16.0.0, SVG Export Plug-In . SVG Version: 6.00 Build 0)  -->
<!DOCTYPE svg PUBLIC "-//W3C//DTD SVG 1.1//EN" "http://www.w3.org/Graphics/SVG/1.1/DTD/svg11.dtd">
<svg version="1.1" id="Layer_1" xmlns="http://www.w3.org/2000/svg" xmlns:xlink="http://www.w3.org/1999/xlink" x="0px" y="0px"
	 width="800px" height="600px" viewBox="0 0 800 600" enable-background="new 0 0 800 600" xml:space="preserve">
<path fill="#F19C23" d="M546.71,70.973l-4.054-8.691l-17.376,8.217c11.979,25.683-26.526,46.525-39.043,19.681l0.04-0.017
	l-0.044,0.01l-2.784-6.072l-0.039,0.017c-12.516-26.837,28.198-42.937,40.175-17.254l17.464-8.031l-4.053-8.689l-8.974,4.071
	c-13.018-27.912-64.864-11.411-62.485,23.233l-117.914,52.513L242.26,80.827l13.025-28.04L244.52,14.934l-37.469,15.361
	l-45.209,96.956l48.231,22.493l18.608-39.905l80.173,37.385L183.65,202.984l8.634,18.009l139.974-62.854l0,0l-137.179,69.449
	l7.421,15.821l152.818-74.518l159.202,74.236l13.537-29.03L392.37,150.824l87.488-42.66c25.012,24.086,70.98-5.021,57.962-32.935
	L546.71,70.973z"/>
<path fill="#F19C23" d="M530.363,416.869c175.599-18.347,255.098-99.751,267.338-126.834H530.363l0.003-10.312l-47.179,0.133v-17.34
	H1.818v28.64l9.37,0.419l0.308,24.833c175.842,5.544,259.604,90.231,253.283,153.596c-5.158,51.708-116.552,64.185-116.552,64.185
	v41.131h103.448c0.294-0.193,0.587-0.371,0.881-0.562c14.766-13.386,40.487-23.667,71.58-28.208
	c12.378-2.08,24.41-2.809,35.906-2.551c0.007,0,0.015,0,0.021,0c47.008,0,87.76,12.608,107.812,31.031
	c0.292,0.182,0.46,0.289,0.46,0.289h83.824v-41.131c0,0-113.528-17.884-110.033-67.68
	C445.621,416.712,505.485,419.468,530.363,416.869z"/>
</svg>
