<?xml version="1.0" encoding="utf-8"?>
<!-- Generator: Adobe Illustrator 16.0.0, SVG Export Plug-In . SVG Version: 6.00 Build 0)  -->
<!DOCTYPE svg PUBLIC "-//W3C//DTD SVG 1.1//EN" "http://www.w3.org/Graphics/SVG/1.1/DTD/svg11.dtd">
<svg version="1.1" id="Layer_1" xmlns="http://www.w3.org/2000/svg" xmlns:xlink="http://www.w3.org/1999/xlink" x="0px" y="0px"
	 width="85.652px" height="99.776px" viewBox="0 0 85.652 99.776" enable-background="new 0 0 85.652 99.776" xml:space="preserve">
<g>
	<path fill="#F19C22" d="M30.498,8.336c-4.949,0-8.846,3.393-8.846,7.578v70.098c0,4.185,3.896,7.578,8.846,7.578l55.154,5.052
		V2.021L30.498,8.336z M25.398,51.001l17.219-14.485l3.984,4.036l-12.67,10.397l12.672,10.526l-3.986,4.036L25.398,51.001z
		 M52.799,64.321h-6.195l5.742-29h6.219L52.799,64.321z M62.631,65.511l-3.961-4.036l12.646-10.423l-12.646-10.5l3.961-4.036
		L79.85,51.001L62.631,65.511z"/>
	<g>
		<path fill="#F19C22" stroke="#F19C22" stroke-miterlimit="10" d="M12.916,9.989c0.08,0.09,0.119,0.195,0.119,0.315
			c0,0.16-0.086,0.3-0.256,0.42c-0.09,0.06-0.184,0.09-0.283,0.09c-0.15,0-0.297-0.075-0.436-0.225
			c-0.301-0.33-0.631-0.577-0.99-0.742s-0.76-0.248-1.199-0.248C9.32,9.599,8.83,9.731,8.4,9.996
			c-0.43,0.265-0.764,0.638-0.998,1.118s-0.352,1.02-0.352,1.62c0,0.59,0.125,1.123,0.375,1.598c0.25,0.475,0.6,0.848,1.049,1.118
			c0.451,0.27,0.965,0.405,1.545,0.405c0.801,0,1.445-0.215,1.936-0.645c0.131-0.11,0.266-0.165,0.404-0.165
			c0.121,0,0.23,0.04,0.33,0.12c0.141,0.12,0.211,0.255,0.211,0.405c0,0.13-0.051,0.24-0.15,0.33
			c-0.721,0.67-1.629,1.005-2.73,1.005c-0.779,0-1.479-0.183-2.1-0.548c-0.619-0.365-1.107-0.865-1.463-1.5
			c-0.354-0.635-0.531-1.342-0.531-2.123c0-0.8,0.17-1.517,0.51-2.152c0.34-0.635,0.811-1.132,1.41-1.493
			c0.6-0.36,1.275-0.54,2.025-0.54C11.121,8.549,12.135,9.029,12.916,9.989z"/>
		<path fill="#F19C22" stroke="#F19C22" stroke-miterlimit="10" d="M11.617,24.073c0.631,0.36,1.129,0.86,1.492,1.5
			c0.365,0.64,0.549,1.355,0.549,2.145c0,0.791-0.18,1.503-0.541,2.138c-0.359,0.635-0.857,1.132-1.492,1.493
			c-0.635,0.36-1.348,0.54-2.137,0.54c-0.791,0-1.504-0.18-2.139-0.54c-0.635-0.36-1.131-0.857-1.492-1.493
			c-0.359-0.635-0.539-1.347-0.539-2.138c0-0.79,0.18-1.505,0.539-2.145c0.361-0.64,0.857-1.14,1.492-1.5
			c0.635-0.36,1.348-0.54,2.139-0.54C10.277,23.534,10.988,23.713,11.617,24.073z M7.936,24.988c-0.465,0.27-0.83,0.643-1.096,1.118
			c-0.264,0.475-0.396,1.013-0.396,1.612c0,0.59,0.133,1.123,0.396,1.598c0.266,0.475,0.631,0.848,1.096,1.118
			s0.982,0.405,1.553,0.405c0.58,0,1.1-0.135,1.559-0.405c0.461-0.27,0.82-0.643,1.08-1.118c0.262-0.475,0.391-1.007,0.391-1.598
			c0-0.6-0.129-1.137-0.391-1.612c-0.26-0.475-0.619-0.848-1.08-1.118c-0.459-0.27-0.979-0.405-1.559-0.405
			C8.918,24.583,8.4,24.718,7.936,24.988z"/>
		<path fill="#F19C22" stroke="#F19C22" stroke-miterlimit="10" d="M13.432,39.179v3.525c0,0.78-0.182,1.49-0.547,2.13
			c-0.365,0.64-0.865,1.143-1.5,1.507c-0.635,0.365-1.342,0.548-2.123,0.548c-0.779,0-1.486-0.183-2.121-0.548
			c-0.637-0.365-1.137-0.867-1.5-1.507c-0.365-0.64-0.549-1.35-0.549-2.13c0-0.78,0.178-1.487,0.533-2.123
			c0.355-0.635,0.84-1.135,1.455-1.5s1.303-0.547,2.063-0.547c0.65,0,1.244,0.137,1.785,0.412c0.539,0.275,0.984,0.653,1.334,1.133
			v-4.395c0-0.17,0.055-0.31,0.166-0.42c0.109-0.11,0.25-0.165,0.42-0.165s0.307,0.055,0.412,0.165
			c0.105,0.11,0.158,0.25,0.158,0.42v3.36C13.428,39.073,13.432,39.119,13.432,39.179z M10.807,45.426
			c0.461-0.275,0.822-0.65,1.088-1.125c0.266-0.475,0.398-1.007,0.398-1.597c0-0.17-0.006-0.295-0.016-0.375
			c-0.01-0.02-0.016-0.045-0.016-0.075c-0.1-0.78-0.428-1.42-0.982-1.92s-1.227-0.75-2.018-0.75c-0.57,0-1.088,0.135-1.553,0.405
			s-0.83,0.643-1.094,1.118c-0.266,0.475-0.398,1.008-0.398,1.598s0.133,1.123,0.398,1.597c0.264,0.475,0.629,0.85,1.094,1.125
			c0.465,0.275,0.982,0.413,1.553,0.413S10.348,45.701,10.807,45.426z"/>
		<path fill="#F19C22" stroke="#F19C22" stroke-miterlimit="10" d="M10.057,50.639c0.16,0.15,0.24,0.345,0.24,0.585
			c0,0.23-0.08,0.425-0.24,0.585s-0.355,0.24-0.584,0.24c-0.23,0-0.424-0.08-0.578-0.24s-0.232-0.355-0.232-0.585
			c0-0.24,0.08-0.435,0.24-0.585c0.16-0.15,0.355-0.225,0.584-0.225C9.707,50.414,9.896,50.488,10.057,50.639z M9.066,53.773
			c0.111-0.11,0.25-0.165,0.42-0.165s0.309,0.055,0.414,0.165c0.104,0.11,0.156,0.25,0.156,0.42v7.035c0,0.17-0.053,0.31-0.156,0.42
			c-0.105,0.11-0.244,0.165-0.414,0.165s-0.309-0.055-0.42-0.165c-0.109-0.11-0.164-0.25-0.164-0.42v-7.035
			C8.902,54.023,8.957,53.884,9.066,53.773z"/>
		<path fill="#F19C22" stroke="#F19C22" stroke-miterlimit="10" d="M11.551,68.968c0.564,0.3,1.008,0.738,1.326,1.313
			c0.32,0.575,0.48,1.263,0.48,2.063v3.9c0,0.16-0.055,0.295-0.164,0.405c-0.111,0.11-0.246,0.165-0.406,0.165
			c-0.17,0-0.309-0.055-0.42-0.165c-0.109-0.11-0.164-0.245-0.164-0.405v-3.9c0-0.89-0.248-1.567-0.742-2.032
			c-0.496-0.465-1.143-0.698-1.943-0.698c-0.49,0-0.932,0.095-1.328,0.285c-0.395,0.19-0.707,0.453-0.938,0.788
			c-0.229,0.335-0.344,0.708-0.344,1.118v4.44c0,0.17-0.053,0.307-0.158,0.412s-0.242,0.158-0.412,0.158s-0.311-0.053-0.42-0.158
			s-0.166-0.242-0.166-0.412v-7.05c0-0.17,0.057-0.31,0.166-0.42c0.109-0.11,0.25-0.165,0.42-0.165s0.307,0.055,0.412,0.165
			c0.105,0.11,0.158,0.25,0.158,0.42v0.51c0.33-0.37,0.729-0.66,1.199-0.87s0.98-0.315,1.531-0.315
			C10.348,68.519,10.984,68.668,11.551,68.968z"/>
		<path fill="#F19C22" stroke="#F19C22" stroke-miterlimit="10" d="M11.633,84.066c0.631,0.355,1.125,0.85,1.484,1.485
			c0.361,0.635,0.541,1.358,0.541,2.167v3.06c0,0.8-0.178,1.525-0.533,2.175c-0.355,0.65-0.848,1.163-1.477,1.538
			c-0.631,0.375-1.34,0.563-2.131,0.563c-0.77,0-1.455-0.146-2.055-0.435c-0.6-0.291-1.105-0.695-1.516-1.215
			c-0.09-0.1-0.135-0.215-0.135-0.345c0-0.15,0.07-0.28,0.211-0.39c0.1-0.07,0.209-0.105,0.33-0.105c0.09,0,0.18,0.022,0.27,0.067
			s0.16,0.103,0.209,0.173c0.301,0.38,0.682,0.675,1.141,0.885c0.461,0.21,0.98,0.315,1.561,0.315c0.559,0,1.066-0.138,1.521-0.413
			s0.813-0.66,1.072-1.155c0.262-0.495,0.391-1.063,0.391-1.703v-0.675c-0.299,0.57-0.725,1.018-1.275,1.342
			c-0.549,0.325-1.174,0.488-1.875,0.488c-0.779,0-1.477-0.178-2.092-0.533s-1.096-0.85-1.439-1.485
			c-0.346-0.635-0.518-1.353-0.518-2.153c0-0.81,0.18-1.532,0.539-2.167c0.361-0.635,0.857-1.13,1.492-1.485
			s1.348-0.532,2.139-0.532C10.287,83.534,11.002,83.711,11.633,84.066z M11.047,90.441c0.461-0.265,0.82-0.635,1.08-1.11
			c0.262-0.475,0.391-1.013,0.391-1.613c0-0.6-0.129-1.137-0.391-1.612c-0.26-0.475-0.619-0.848-1.08-1.118
			c-0.459-0.27-0.979-0.405-1.559-0.405c-0.59,0-1.115,0.135-1.576,0.405c-0.459,0.27-0.82,0.643-1.08,1.118
			c-0.26,0.475-0.389,1.013-0.389,1.612c0,0.6,0.129,1.138,0.389,1.613s0.621,0.845,1.08,1.11c0.461,0.265,0.986,0.397,1.576,0.397
			C10.068,90.838,10.588,90.706,11.047,90.441z"/>
	</g>
</g>
</svg>
