<?xml version="1.0" encoding="utf-8"?>
<!-- Generator: Adobe Illustrator 16.0.0, SVG Export Plug-In . SVG Version: 6.00 Build 0)  -->
<!DOCTYPE svg PUBLIC "-//W3C//DTD SVG 1.1//EN" "http://www.w3.org/Graphics/SVG/1.1/DTD/svg11.dtd">
<svg version="1.1" id="Layer_1" xmlns="http://www.w3.org/2000/svg" xmlns:xlink="http://www.w3.org/1999/xlink" x="0px" y="0px"
	 width="536px" height="94.5px" viewBox="0 0 536 94.5" enable-background="new 0 0 536 94.5" xml:space="preserve">
<text transform="matrix(1 0 0 1 -124.7544 -467.9736)" fill="#F19C22" font-family="'Comfortaa-Light'" font-size="88">forged elements </text>
<g>
	<path fill="#F19C22" d="M-76.508,270.96c-1.936,2.846-2.904,6.674-2.904,11.484v1.848h11.615c0.705,0,1.277,0.221,1.717,0.66
		s0.66,1.012,0.66,1.716s-0.221,1.276-0.66,1.716s-1.012,0.66-1.717,0.66h-11.615v38.984c0,0.763-0.25,1.395-0.748,1.892
		c-0.498,0.499-1.158,0.748-1.98,0.748c-0.762,0-1.393-0.249-1.891-0.748c-0.5-0.497-0.748-1.129-0.748-1.892v-38.984h-6.865
		c-0.703,0-1.275-0.221-1.715-0.66c-0.441-0.439-0.66-1.012-0.66-1.716s0.219-1.276,0.66-1.716c0.439-0.439,1.012-0.66,1.715-0.66
		h6.865v-1.848c0-6.277,1.465-11.264,4.398-14.961c2.934-3.695,7.334-5.543,13.201-5.543c0.762,0,1.393,0.22,1.893,0.66
		c0.496,0.439,0.748,1.012,0.748,1.715c0,0.705-0.252,1.276-0.748,1.717c-0.5,0.439-1.131,0.66-1.893,0.66
		C-71.463,266.692-74.572,268.115-76.508,270.96z"/>
	<path fill="#F19C22" d="M-25.283,285.216c3.754,2.143,6.701,5.09,8.844,8.844c2.141,3.756,3.211,7.951,3.211,12.584
		c0,4.576-1.07,8.742-3.211,12.496c-2.143,3.756-5.09,6.703-8.844,8.844c-3.756,2.143-7.92,3.213-12.496,3.213
		c-4.637,0-8.83-1.07-12.584-3.213c-3.756-2.141-6.703-5.088-8.844-8.844c-2.143-3.754-3.213-7.92-3.213-12.496
		c0-4.633,1.07-8.828,3.213-12.584c2.141-3.754,5.088-6.701,8.844-8.844c3.754-2.141,7.947-3.212,12.584-3.212
		C-33.203,282.004-29.039,283.075-25.283,285.216z M-47.637,289.528c-2.934,1.73-5.25,4.092-6.951,7.084
		c-1.703,2.992-2.553,6.336-2.553,10.031c0,3.696,0.85,7.041,2.553,10.032c1.701,2.992,4.018,5.339,6.951,7.04
		c2.934,1.703,6.219,2.553,9.857,2.553c3.637,0,6.922-0.85,9.855-2.553c2.934-1.701,5.236-4.048,6.908-7.04
		c1.672-2.991,2.508-6.336,2.508-10.032c0-3.695-0.836-7.039-2.508-10.031s-3.975-5.354-6.908-7.084s-6.219-2.596-9.855-2.596
		C-41.418,286.933-44.703,287.798-47.637,289.528z"/>
	<path fill="#F19C22" d="M25.129,284.908c0,0.294-0.029,0.528-0.088,0.704c-0.176,0.646-0.455,1.1-0.836,1.363
		s-0.895,0.396-1.539,0.396c-0.527,0-1.219-0.058-2.068-0.176c-0.852-0.117-1.57-0.176-2.156-0.176
		c-2.934,0-5.543,0.615-7.832,1.848c-2.287,1.232-4.078,2.934-5.367,5.104c-1.291,2.172-1.936,4.606-1.936,7.305v26.752
		c0,0.763-0.236,1.395-0.705,1.892c-0.471,0.499-1.115,0.748-1.936,0.748c-0.764,0-1.395-0.249-1.893-0.748
		c-0.498-0.497-0.748-1.129-0.748-1.892v-42.856c0-0.821,0.25-1.466,0.748-1.937c0.498-0.469,1.129-0.703,1.893-0.703
		c0.82,0,1.465,0.234,1.936,0.703c0.469,0.471,0.705,1.115,0.705,1.937v5.456c1.699-2.697,3.871-4.81,6.512-6.336
		c2.639-1.525,5.514-2.288,8.623-2.288C22.9,282.004,25.129,282.972,25.129,284.908z"/>
	<path fill="#F19C22" d="M65.898,285.172c3.727,2.112,6.629,5.031,8.713,8.756c2.082,3.727,3.123,7.964,3.123,12.716v17.248
		c0,4.695-1.055,8.961-3.168,12.805c-2.111,3.842-5.016,6.863-8.711,9.063s-7.803,3.3-12.32,3.3c-4.635,0-8.697-0.865-12.188-2.596
		c-3.492-1.73-6.41-4.092-8.756-7.084c-0.471-0.587-0.705-1.174-0.705-1.76c0-0.704,0.293-1.262,0.881-1.672
		c0.469-0.352,0.996-0.528,1.584-0.528c0.938,0,1.701,0.381,2.287,1.144c1.938,2.346,4.326,4.194,7.172,5.545
		c2.846,1.349,6.086,2.023,9.725,2.023c3.578,0,6.805-0.88,9.68-2.64c2.875-1.761,5.133-4.181,6.775-7.261s2.465-6.525,2.465-10.34
		v-3.871c-1.701,3.462-4.238,6.189-7.611,8.184c-3.375,1.995-7.26,2.992-11.66,2.992c-4.752,0-8.992-1.041-12.717-3.125
		c-3.727-2.081-6.643-4.984-8.756-8.711c-2.111-3.725-3.168-7.965-3.168-12.717c0-4.692,1.086-8.916,3.256-12.672
		c2.17-3.754,5.133-6.688,8.889-8.8c3.754-2.112,7.92-3.168,12.496-3.168C57.936,282.004,62.174,283.06,65.898,285.172z
		 M63.127,323.76c2.934-1.672,5.221-3.989,6.863-6.952c1.643-2.961,2.465-6.35,2.465-10.164c0-3.813-0.822-7.216-2.465-10.207
		c-1.643-2.992-3.93-5.324-6.863-6.996s-6.248-2.508-9.943-2.508c-3.756,0-7.1,0.836-10.031,2.508
		c-2.936,1.672-5.223,4.004-6.865,6.996c-1.643,2.991-2.463,6.395-2.463,10.207c0,3.814,0.82,7.203,2.463,10.164
		c1.643,2.963,3.93,5.28,6.865,6.952c2.932,1.673,6.275,2.509,10.031,2.509C56.879,326.269,60.193,325.433,63.127,323.76z"/>
	<path fill="#F19C22" d="M121.33,285.128c3.373,2.023,5.998,4.826,7.875,8.404c1.877,3.579,2.816,7.656,2.816,12.232
		c0,0.762-0.234,1.363-0.703,1.803c-0.471,0.44-1.086,0.66-1.85,0.66H92.598c0.176,3.463,1.084,6.557,2.729,9.285
		c1.641,2.727,3.842,4.854,6.6,6.379c2.756,1.527,5.836,2.289,9.24,2.289c2.287,0,4.59-0.396,6.908-1.188
		c2.316-0.792,4.148-1.833,5.5-3.124c0.586-0.469,1.201-0.704,1.848-0.704c0.645,0,1.172,0.176,1.584,0.528
		c0.645,0.527,0.969,1.144,0.969,1.848c0,0.587-0.266,1.145-0.793,1.672c-1.879,1.702-4.326,3.11-7.348,4.225
		c-3.023,1.115-5.912,1.672-8.668,1.672c-4.635,0-8.756-1.041-12.365-3.125c-3.607-2.081-6.438-4.985-8.49-8.711
		c-2.055-3.726-3.08-7.934-3.08-12.629c0-4.752,0.951-8.989,2.859-12.716c1.906-3.725,4.576-6.628,8.008-8.712
		c3.432-2.082,7.348-3.124,11.748-3.124C114.127,282.092,117.955,283.104,121.33,285.128z M98.273,291.597
		c-3.139,3.051-5.002,7.069-5.588,12.055h34.232c-0.412-4.985-2.172-9.004-5.279-12.055c-3.111-3.051-7.041-4.576-11.793-4.576
		C105.27,287.021,101.412,288.546,98.273,291.597z"/>
	<path fill="#F19C22" d="M188.322,262.644c0.471,0.471,0.705,1.115,0.705,1.937v42.328v0.176c-0.059,4.519-1.174,8.624-3.344,12.319
		c-2.172,3.697-5.119,6.587-8.844,8.668c-3.727,2.084-7.848,3.125-12.365,3.125c-4.635,0-8.83-1.07-12.584-3.213
		c-3.754-2.141-6.703-5.088-8.844-8.844c-2.143-3.754-3.211-7.949-3.211-12.584c0-4.576,1.068-8.74,3.211-12.496
		c2.141-3.754,5.09-6.701,8.844-8.844c3.754-2.141,7.949-3.212,12.584-3.212c4.166,0,7.934,0.896,11.309,2.685
		c3.373,1.789,6.027,4.238,7.965,7.348V264.58c0-0.821,0.248-1.466,0.748-1.937c0.496-0.469,1.129-0.703,1.891-0.703
		C187.209,261.94,187.854,262.175,188.322,262.644z M174.332,323.672c2.932-1.729,5.234-4.092,6.906-7.084
		c1.674-2.991,2.51-6.336,2.51-10.032c0-3.695-0.836-7.039-2.51-10.031c-1.672-2.992-3.975-5.338-6.906-7.041
		c-2.936-1.7-6.221-2.551-9.857-2.551s-6.922,0.851-9.855,2.551c-2.934,1.703-5.252,4.049-6.951,7.041
		c-1.703,2.992-2.553,6.336-2.553,10.031c0,3.696,0.85,7.041,2.553,10.032c1.699,2.992,4.018,5.354,6.951,7.084
		c2.934,1.731,6.219,2.597,9.855,2.597S171.396,325.403,174.332,323.672z"/>
	<path fill="#F19C22" d="M262.111,285.128c3.373,2.023,5.998,4.826,7.875,8.404c1.877,3.579,2.816,7.656,2.816,12.232
		c0,0.762-0.234,1.363-0.703,1.803c-0.471,0.44-1.086,0.66-1.85,0.66h-36.871c0.176,3.463,1.084,6.557,2.729,9.285
		c1.641,2.727,3.842,4.854,6.6,6.379c2.756,1.527,5.836,2.289,9.24,2.289c2.287,0,4.59-0.396,6.908-1.188
		c2.316-0.792,4.148-1.833,5.5-3.124c0.586-0.469,1.201-0.704,1.848-0.704c0.645,0,1.172,0.176,1.584,0.528
		c0.645,0.527,0.969,1.144,0.969,1.848c0,0.587-0.266,1.145-0.793,1.672c-1.879,1.702-4.326,3.11-7.348,4.225
		c-3.023,1.115-5.912,1.672-8.668,1.672c-4.635,0-8.756-1.041-12.365-3.125c-3.607-2.081-6.438-4.985-8.49-8.711
		c-2.055-3.726-3.08-7.934-3.08-12.629c0-4.752,0.951-8.989,2.859-12.716c1.906-3.725,4.576-6.628,8.008-8.712
		c3.432-2.082,7.348-3.124,11.748-3.124C254.908,282.092,258.736,283.104,262.111,285.128z M239.055,291.597
		c-3.139,3.051-5.002,7.069-5.588,12.055h34.232c-0.412-4.985-2.172-9.004-5.279-12.055c-3.111-3.051-7.041-4.576-11.793-4.576
		C246.051,287.021,242.193,288.546,239.055,291.597z"/>
	<path fill="#F19C22" d="M282.65,262.644c0.496-0.469,1.129-0.703,1.891-0.703c0.822,0,1.467,0.234,1.938,0.703
		c0.469,0.471,0.703,1.115,0.703,1.937v51.567c0,2.699,0.572,4.914,1.717,6.645c1.143,1.73,2.625,2.596,4.443,2.596h2.199
		c0.646,0,1.174,0.235,1.584,0.704c0.41,0.47,0.617,1.115,0.617,1.937c0,0.763-0.236,1.395-0.705,1.892
		c-0.469,0.499-1.115,0.748-1.936,0.748h-1.76c-3.344,0-6.088-1.349-8.229-4.048c-2.143-2.697-3.211-6.189-3.211-10.473V264.58
		C281.902,263.759,282.15,263.114,282.65,262.644z"/>
	<path fill="#F19C22" d="M335.256,285.128c3.373,2.023,5.998,4.826,7.875,8.404c1.877,3.579,2.816,7.656,2.816,12.232
		c0,0.762-0.234,1.363-0.703,1.803c-0.471,0.44-1.086,0.66-1.85,0.66h-36.871c0.176,3.463,1.084,6.557,2.729,9.285
		c1.641,2.727,3.842,4.854,6.6,6.379c2.756,1.527,5.836,2.289,9.24,2.289c2.287,0,4.59-0.396,6.908-1.188
		c2.316-0.792,4.148-1.833,5.5-3.124c0.586-0.469,1.201-0.704,1.848-0.704c0.645,0,1.172,0.176,1.584,0.528
		c0.645,0.527,0.969,1.144,0.969,1.848c0,0.587-0.266,1.145-0.793,1.672c-1.879,1.702-4.326,3.11-7.348,4.225
		c-3.023,1.115-5.912,1.672-8.668,1.672c-4.635,0-8.756-1.041-12.365-3.125c-3.607-2.081-6.438-4.985-8.49-8.711
		c-2.055-3.726-3.08-7.934-3.08-12.629c0-4.752,0.951-8.989,2.859-12.716c1.906-3.725,4.576-6.628,8.008-8.712
		c3.432-2.082,7.348-3.124,11.748-3.124C328.053,282.092,331.881,283.104,335.256,285.128z M312.199,291.597
		c-3.139,3.051-5.002,7.069-5.588,12.055h34.232c-0.412-4.985-2.172-9.004-5.279-12.055c-3.111-3.051-7.041-4.576-11.793-4.576
		C319.195,287.021,315.338,288.546,312.199,291.597z"/>
	<path fill="#F19C22" d="M416.232,284.556c2.758,1.76,4.898,4.211,6.424,7.348c1.525,3.14,2.289,6.703,2.289,10.693v25.432
		c0,0.763-0.236,1.395-0.705,1.892c-0.471,0.499-1.115,0.748-1.936,0.748c-0.764,0-1.395-0.249-1.893-0.748
		c-0.498-0.497-0.748-1.129-0.748-1.892v-25.432c0-4.518-1.203-8.213-3.607-11.089c-2.406-2.874-5.486-4.312-9.24-4.312
		c-4.107,0-7.422,1.35-9.943,4.048c-2.523,2.698-3.727,6.278-3.609,10.735v0.617v25.432c0,0.763-0.234,1.395-0.703,1.892
		c-0.471,0.499-1.115,0.748-1.936,0.748c-0.764,0-1.395-0.249-1.893-0.748c-0.498-0.497-0.748-1.129-0.748-1.892v-25.432
		c0-4.518-1.203-8.213-3.607-11.089c-2.406-2.874-5.486-4.312-9.24-4.312c-4.049,0-7.363,1.291-9.943,3.871
		c-2.582,2.583-3.873,5.927-3.873,10.033v26.928c0,0.763-0.234,1.395-0.703,1.892c-0.471,0.499-1.115,0.748-1.938,0.748
		c-0.762,0-1.393-0.249-1.891-0.748c-0.5-0.497-0.748-1.129-0.748-1.892v-42.856c0-0.821,0.248-1.466,0.748-1.937
		c0.498-0.469,1.129-0.703,1.891-0.703c0.822,0,1.467,0.234,1.938,0.703c0.469,0.471,0.703,1.115,0.703,1.937v3.433
		c1.643-2.112,3.666-3.754,6.072-4.929c2.404-1.173,4.986-1.76,7.744-1.76c3.402,0,6.453,0.836,9.152,2.508
		c2.697,1.673,4.84,3.976,6.424,6.908c1.584-2.933,3.783-5.235,6.6-6.908c2.816-1.672,5.984-2.508,9.504-2.508
		S413.475,282.796,416.232,284.556z"/>
	<path fill="#F19C22" d="M469.717,285.128c3.373,2.023,5.998,4.826,7.877,8.404c1.877,3.579,2.816,7.656,2.816,12.232
		c0,0.762-0.236,1.363-0.705,1.803c-0.471,0.44-1.086,0.66-1.848,0.66h-36.871c0.176,3.463,1.084,6.557,2.727,9.285
		c1.643,2.727,3.842,4.854,6.6,6.379c2.758,1.527,5.838,2.289,9.24,2.289c2.289,0,4.59-0.396,6.908-1.188
		c2.316-0.792,4.15-1.833,5.5-3.124c0.586-0.469,1.203-0.704,1.848-0.704c0.646,0,1.174,0.176,1.584,0.528
		c0.646,0.527,0.969,1.144,0.969,1.848c0,0.587-0.264,1.145-0.791,1.672c-1.879,1.702-4.328,3.11-7.35,4.225
		c-3.021,1.115-5.91,1.672-8.668,1.672c-4.635,0-8.756-1.041-12.363-3.125c-3.607-2.081-6.439-4.985-8.492-8.711
		c-2.055-3.726-3.08-7.934-3.08-12.629c0-4.752,0.953-8.989,2.859-12.716c1.906-3.725,4.576-6.628,8.01-8.712
		c3.432-2.082,7.348-3.124,11.748-3.124C462.516,282.092,466.344,283.104,469.717,285.128z M446.662,291.597
		c-3.141,3.051-5.004,7.069-5.588,12.055h34.23c-0.41-4.985-2.17-9.004-5.279-12.055s-7.039-4.576-11.791-4.576
		C453.658,287.021,449.799,288.546,446.662,291.597z"/>
	<path fill="#F19C22" d="M523.986,284.556c3.373,1.76,6.014,4.328,7.92,7.7c1.906,3.374,2.859,7.407,2.859,12.101v23.672
		c0,0.763-0.25,1.395-0.748,1.892c-0.498,0.499-1.129,0.748-1.891,0.748c-0.764,0-1.395-0.249-1.893-0.748
		c-0.498-0.497-0.748-1.129-0.748-1.892v-23.672c0-5.573-1.57-9.826-4.707-12.76c-3.141-2.934-7.232-4.4-12.277-4.4
		c-3.109,0-5.939,0.602-8.492,1.804c-2.551,1.203-4.561,2.875-6.027,5.017s-2.199,4.502-2.199,7.084v26.928
		c0,0.763-0.236,1.395-0.705,1.892c-0.471,0.499-1.115,0.748-1.936,0.748c-0.764,0-1.395-0.249-1.893-0.748
		c-0.498-0.497-0.748-1.129-0.748-1.892v-42.856c0-0.821,0.25-1.466,0.748-1.937c0.498-0.469,1.129-0.703,1.893-0.703
		c0.82,0,1.465,0.234,1.936,0.703c0.469,0.471,0.705,1.115,0.705,1.937v4.576c1.992-2.464,4.428-4.385,7.303-5.765
		c2.875-1.377,6.014-2.067,9.416-2.067C516.785,281.916,520.611,282.796,523.986,284.556z"/>
	<path fill="#F19C22" d="M569.93,326.048c0.498,0.499,0.748,1.159,0.748,1.98c0,0.763-0.25,1.395-0.748,1.892
		c-0.498,0.499-1.158,0.748-1.979,0.748h-2.025c-3.227,0-6.102-0.733-8.623-2.2c-2.523-1.465-4.488-3.476-5.896-6.027
		c-1.408-2.553-2.111-5.441-2.111-8.668v-24.729h-6.865c-0.703,0-1.275-0.221-1.715-0.66s-0.66-1.012-0.66-1.716
		s0.221-1.276,0.66-1.716s1.012-0.66,1.715-0.66h6.865v-19.344c0-0.821,0.248-1.48,0.748-1.98c0.498-0.498,1.129-0.748,1.891-0.748
		c0.822,0,1.482,0.25,1.98,0.748c0.498,0.5,0.748,1.159,0.748,1.98v19.344h11.617c0.703,0,1.275,0.221,1.715,0.66
		s0.66,1.012,0.66,1.716s-0.221,1.276-0.66,1.716s-1.012,0.66-1.715,0.66h-11.617v24.729c0,3.402,1.057,6.175,3.168,8.315
		c2.113,2.142,4.84,3.212,8.184,3.212h1.938C568.771,325.3,569.432,325.55,569.93,326.048z"/>
	<path fill="#F19C22" d="M613.041,289.924c0.354,0.411,0.529,0.91,0.529,1.496c0,0.822-0.471,1.496-1.408,2.024
		c-0.588,0.234-1.027,0.352-1.32,0.352c-0.881,0-1.613-0.381-2.199-1.145c-2.992-3.813-7.188-5.719-12.584-5.719
		c-3.58,0-6.424,0.777-8.537,2.332c-2.111,1.555-3.168,3.475-3.168,5.764c0,2.347,1.012,4.224,3.037,5.632
		c2.023,1.407,5.412,2.464,10.164,3.168c6.217,0.88,10.691,2.538,13.42,4.972c2.727,2.436,4.092,5.383,4.092,8.844
		c0,2.699-0.867,5.076-2.596,7.129c-1.732,2.054-4.035,3.638-6.908,4.752c-2.875,1.115-6.016,1.672-9.416,1.672
		c-3.404,0-6.719-0.602-9.945-1.805c-3.227-1.201-5.895-3.035-8.008-5.5c-0.41-0.469-0.615-0.996-0.615-1.584
		c0-0.82,0.381-1.496,1.145-2.023c0.352-0.293,0.85-0.44,1.496-0.44c0.82,0,1.496,0.323,2.023,0.968
		c2.932,3.58,7.656,5.369,14.168,5.369c4.633,0,8.051-0.822,10.252-2.465c2.199-1.642,3.299-3.754,3.299-6.336
		c0-4.634-4.486-7.597-13.463-8.888c-5.691-0.821-9.988-2.376-12.893-4.664s-4.355-5.045-4.355-8.272
		c0-4.281,1.568-7.611,4.707-9.988c3.139-2.375,7.23-3.563,12.277-3.563C603.625,282.004,609.229,284.644,613.041,289.924z"/>
</g>
<text transform="matrix(1 0 0 1 -124.7544 -353.5947)" fill="#F19C22" stroke="#F19C22" stroke-width="2" stroke-miterlimit="10" font-family="'Flamenco-Light'" font-size="88">forged elements</text>
<text transform="matrix(1 0 0 1 9.2456 70.9053)" fill="#F19C22" stroke="#F19C22" stroke-width="2" stroke-miterlimit="10" font-family="'Flamenco-Light'" font-size="88">forged elements</text>
<text transform="matrix(1 0 0 1 -124.7544 -581.6987)" fill="#F19C22" font-family="'Milonga-Regular'" font-size="88">Forged Elements</text>
<g>
	<g>
		<g>
			<path fill="#F19C22" d="M-59.262,266.981c46.627,0,93.255,0,139.882,0c33.04,0,66.079,0,99.118,0c3.224,0,3.224-5,0-5
				c-46.627,0-93.255,0-139.882,0c-33.04,0-66.079,0-99.118,0C-62.486,261.981-62.486,266.981-59.262,266.981L-59.262,266.981z"/>
		</g>
	</g>
	<g>
		<g>
			<path fill="#F19C22" d="M26.738,336.981c-36.667,0-73.333,0-110,0c-3.224,0-3.224,5,0,5c36.667,0,73.333,0,110,0
				C29.962,341.981,29.962,336.981,26.738,336.981L26.738,336.981z"/>
		</g>
	</g>
	<g>
		<g>
			<path fill="#F19C22" d="M79.738,341.981c35.333,0,70.667,0,106,0c3.224,0,3.224-5,0-5c-35.333,0-70.667,0-106,0
				C76.514,336.981,76.514,341.981,79.738,341.981L79.738,341.981z"/>
		</g>
	</g>
	<g>
		<g>
			<path fill="#F19C22" d="M223.738,266.981c17.667,0,35.333,0,53,0c3.224,0,3.224-5,0-5c-17.667,0-35.333,0-53,0
				C220.514,261.981,220.514,266.981,223.738,266.981L223.738,266.981z"/>
		</g>
	</g>
	<g>
		<g>
			<path fill="#F19C22" d="M292.738,266.981c45.657,0,91.313,0,136.971,0c38.01,0,76.02,0,114.029,0c3.225,0,3.225-5,0-5
				c-45.657,0-91.313,0-136.971,0c-38.01,0-76.02,0-114.029,0C289.514,261.981,289.514,266.981,292.738,266.981L292.738,266.981z"/>
		</g>
	</g>
	<g>
		<g>
			<path fill="#F19C22" d="M223.738,341.981c35.08,0,70.16,0,105.24,0c63.999,0,127.999,0,191.999,0c31.253,0,62.507,0,93.761,0
				c3.225,0,3.225-5,0-5c-35.08,0-70.16,0-105.24,0c-63.999,0-127.999,0-191.999,0c-31.253,0-62.507,0-93.761,0
				C220.514,336.981,220.514,341.981,223.738,341.981L223.738,341.981z"/>
		</g>
	</g>
	<g>
		<g>
			<path fill="#F19C22" d="M559.738,266.981c18.333,0,36.667,0,55,0c3.225,0,3.225-5,0-5c-18.333,0-36.667,0-55,0
				C556.514,261.981,556.514,266.981,559.738,266.981L559.738,266.981z"/>
		</g>
	</g>
</g>
</svg>
