<?xml version="1.0" encoding="utf-8"?>
<!-- Generator: Adobe Illustrator 16.0.0, SVG Export Plug-In . SVG Version: 6.00 Build 0)  -->
<!DOCTYPE svg PUBLIC "-//W3C//DTD SVG 1.1//EN" "http://www.w3.org/Graphics/SVG/1.1/DTD/svg11.dtd">
<svg version="1.1" id="Layer_1" xmlns="http://www.w3.org/2000/svg" xmlns:xlink="http://www.w3.org/1999/xlink" x="0px" y="0px"
	 width="85.652px" height="99.776px" viewBox="0 0 85.652 99.776" enable-background="new 0 0 85.652 99.776" xml:space="preserve">
<g>
	<g>
		<path fill="#F19C22" stroke="#F19C22" stroke-miterlimit="10" d="M75.06,4.222c0.129,0.12,0.191,0.276,0.191,0.468
			c0,0.184-0.063,0.34-0.191,0.468c-0.127,0.128-0.283,0.192-0.469,0.192c-0.184,0-0.338-0.064-0.461-0.192
			c-0.125-0.128-0.186-0.284-0.186-0.468c0-0.192,0.063-0.348,0.191-0.468c0.127-0.12,0.283-0.18,0.469-0.18
			C74.78,4.042,74.933,4.102,75.06,4.222z M74.269,6.729c0.088-0.088,0.199-0.132,0.336-0.132c0.135,0,0.246,0.044,0.33,0.132
			c0.084,0.088,0.125,0.2,0.125,0.336v5.628c0,0.136-0.041,0.248-0.125,0.336s-0.195,0.132-0.33,0.132
			c-0.137,0-0.248-0.044-0.336-0.132c-0.09-0.088-0.133-0.2-0.133-0.336V7.065C74.136,6.93,74.179,6.818,74.269,6.729z"/>
		<path fill="#F19C22" stroke="#F19C22" stroke-miterlimit="10" d="M76.692,18.658c0.195,0.088,0.293,0.212,0.293,0.372
			c0,0.048-0.004,0.084-0.012,0.108c-0.031,0.112-0.082,0.188-0.15,0.228c-0.066,0.04-0.162,0.06-0.281,0.06
			c-0.072,0-0.195-0.008-0.371-0.024c-0.064-0.008-0.16-0.012-0.289-0.012c-0.6,0-1.09,0.16-1.471,0.48
			c-0.379,0.32-0.568,0.736-0.568,1.248v3.588c0,0.144-0.041,0.256-0.121,0.336c-0.08,0.08-0.191,0.12-0.336,0.12
			s-0.256-0.04-0.336-0.12c-0.08-0.08-0.119-0.192-0.119-0.336v-5.652c0-0.144,0.039-0.256,0.119-0.336s0.191-0.12,0.336-0.12
			s0.256,0.04,0.336,0.12s0.121,0.192,0.121,0.336v0.528c0.23-0.336,0.527-0.596,0.887-0.78c0.361-0.184,0.748-0.276,1.164-0.276
			C76.229,18.525,76.495,18.57,76.692,18.658z"/>
		<path fill="#F19C22" stroke="#F19C22" stroke-miterlimit="10" d="M76.308,30.97c0.504,0.288,0.902,0.688,1.193,1.2
			c0.293,0.512,0.439,1.084,0.439,1.716s-0.145,1.202-0.434,1.71c-0.287,0.508-0.686,0.906-1.193,1.194s-1.078,0.432-1.709,0.432
			c-0.633,0-1.203-0.144-1.711-0.432s-0.906-0.686-1.193-1.194c-0.289-0.508-0.432-1.078-0.432-1.71s0.143-1.204,0.432-1.716
			c0.287-0.512,0.686-0.912,1.193-1.2s1.078-0.432,1.711-0.432C75.235,30.538,75.804,30.682,76.308,30.97z M73.362,31.702
			c-0.373,0.216-0.664,0.514-0.877,0.894c-0.211,0.38-0.318,0.81-0.318,1.29c0,0.472,0.107,0.898,0.318,1.278
			c0.213,0.38,0.504,0.678,0.877,0.894c0.371,0.216,0.785,0.324,1.242,0.324c0.463,0,0.879-0.108,1.248-0.324
			c0.367-0.216,0.654-0.514,0.863-0.894c0.207-0.38,0.313-0.806,0.313-1.278c0-0.48-0.105-0.91-0.313-1.29
			c-0.209-0.38-0.496-0.678-0.863-0.894c-0.369-0.216-0.785-0.324-1.248-0.324C74.147,31.377,73.733,31.486,73.362,31.702z"/>
		<path fill="#F19C22" stroke="#F19C22" stroke-miterlimit="10" d="M76.253,42.886c0.453,0.24,0.807,0.59,1.063,1.05
			s0.385,1.01,0.385,1.65v3.12c0,0.128-0.045,0.236-0.133,0.324s-0.195,0.132-0.324,0.132c-0.135,0-0.248-0.044-0.336-0.132
			s-0.131-0.196-0.131-0.324v-3.12c0-0.712-0.199-1.254-0.594-1.626c-0.396-0.372-0.914-0.558-1.555-0.558
			c-0.393,0-0.746,0.076-1.063,0.228c-0.316,0.152-0.566,0.362-0.75,0.63s-0.275,0.566-0.275,0.894v3.552
			c0,0.136-0.043,0.246-0.127,0.33s-0.193,0.126-0.33,0.126c-0.135,0-0.248-0.042-0.336-0.126s-0.131-0.194-0.131-0.33v-5.64
			c0-0.136,0.043-0.248,0.131-0.336c0.088-0.088,0.201-0.132,0.336-0.132c0.137,0,0.246,0.044,0.33,0.132
			c0.084,0.088,0.127,0.2,0.127,0.336v0.408c0.264-0.296,0.584-0.528,0.959-0.696c0.377-0.168,0.785-0.252,1.225-0.252
			C75.292,42.525,75.802,42.646,76.253,42.886z"/>
		<path fill="#F19C22" stroke="#F19C22" stroke-miterlimit="10" d="M78.728,54.706c0.07,0.072,0.107,0.168,0.107,0.288
			c0,0.096-0.016,0.18-0.049,0.252l-1.871,5.616c-0.033,0.088-0.086,0.16-0.162,0.216c-0.076,0.056-0.166,0.084-0.27,0.084
			c-0.105,0-0.199-0.028-0.283-0.084c-0.084-0.056-0.137-0.128-0.162-0.216l-1.439-4.776l-1.439,4.776
			c-0.033,0.096-0.088,0.17-0.168,0.222c-0.08,0.052-0.168,0.078-0.264,0.078c-0.105,0-0.195-0.028-0.271-0.084
			c-0.076-0.056-0.133-0.128-0.174-0.216l-1.871-5.616c-0.025-0.096-0.037-0.18-0.037-0.252c0-0.264,0.129-0.396,0.385-0.396
			c0.225,0,0.375,0.116,0.455,0.348l1.537,4.68l1.416-4.668c0.031-0.112,0.086-0.2,0.162-0.264s0.174-0.096,0.293-0.096
			c0.121,0,0.219,0.032,0.295,0.096s0.129,0.152,0.162,0.264l1.379,4.644l1.525-4.656c0.08-0.232,0.227-0.348,0.443-0.348
			C78.554,54.598,78.655,54.634,78.728,54.706z"/>
		<path fill="#F19C22" stroke="#F19C22" stroke-miterlimit="10" d="M76.308,66.97c0.504,0.288,0.902,0.688,1.193,1.2
			c0.293,0.512,0.439,1.084,0.439,1.716s-0.145,1.202-0.434,1.71c-0.287,0.508-0.686,0.906-1.193,1.194s-1.078,0.432-1.709,0.432
			c-0.633,0-1.203-0.144-1.711-0.432s-0.906-0.686-1.193-1.194c-0.289-0.508-0.432-1.078-0.432-1.71s0.143-1.204,0.432-1.716
			c0.287-0.512,0.686-0.912,1.193-1.2s1.078-0.432,1.711-0.432C75.235,66.538,75.804,66.682,76.308,66.97z M73.362,67.702
			c-0.373,0.216-0.664,0.514-0.877,0.894c-0.211,0.38-0.318,0.81-0.318,1.29c0,0.472,0.107,0.898,0.318,1.278
			c0.213,0.38,0.504,0.678,0.877,0.894c0.371,0.216,0.785,0.324,1.242,0.324c0.463,0,0.879-0.108,1.248-0.324
			c0.367-0.216,0.654-0.514,0.863-0.894c0.207-0.38,0.313-0.806,0.313-1.278c0-0.48-0.105-0.91-0.313-1.29
			c-0.209-0.38-0.496-0.678-0.863-0.894c-0.369-0.216-0.785-0.324-1.248-0.324C74.147,67.377,73.733,67.486,73.362,67.702z"/>
		<path fill="#F19C22" stroke="#F19C22" stroke-miterlimit="10" d="M76.692,78.658c0.195,0.088,0.293,0.212,0.293,0.372
			c0,0.048-0.004,0.084-0.012,0.108c-0.031,0.112-0.082,0.188-0.15,0.228c-0.066,0.04-0.162,0.06-0.281,0.06
			c-0.072,0-0.195-0.008-0.371-0.024c-0.064-0.008-0.16-0.012-0.289-0.012c-0.6,0-1.09,0.16-1.471,0.48
			c-0.379,0.32-0.568,0.736-0.568,1.248v3.588c0,0.144-0.041,0.256-0.121,0.336c-0.08,0.08-0.191,0.12-0.336,0.12
			s-0.256-0.04-0.336-0.12c-0.08-0.08-0.119-0.192-0.119-0.336v-5.652c0-0.144,0.039-0.256,0.119-0.336s0.191-0.12,0.336-0.12
			s0.256,0.04,0.336,0.12s0.121,0.192,0.121,0.336v0.528c0.23-0.336,0.527-0.596,0.887-0.78c0.361-0.184,0.748-0.276,1.164-0.276
			C76.229,78.525,76.495,78.57,76.692,78.658z"/>
		<path fill="#F19C22" stroke="#F19C22" stroke-miterlimit="10" d="M77.31,96.778c0,0.12-0.055,0.228-0.168,0.324
			c-0.096,0.072-0.191,0.108-0.287,0.108c-0.129,0-0.236-0.056-0.324-0.168l-2.473-3.036l-0.898,0.816v1.884
			c0,0.136-0.043,0.246-0.127,0.33s-0.193,0.126-0.33,0.126s-0.246-0.042-0.33-0.126s-0.125-0.194-0.125-0.33v-8.46
			c0-0.136,0.041-0.246,0.125-0.33s0.193-0.126,0.33-0.126s0.246,0.042,0.33,0.126s0.127,0.194,0.127,0.33v5.46l3.383-3.06
			c0.088-0.08,0.184-0.12,0.289-0.12c0.119,0,0.219,0.048,0.299,0.144c0.088,0.104,0.133,0.2,0.133,0.288
			c0,0.112-0.053,0.212-0.156,0.3l-2.4,2.172l2.496,3.072C77.274,96.582,77.31,96.674,77.31,96.778z"/>
	</g>
	<path fill="#F19C22" d="M55.807,8.791L0.652,2.476v96.622l55.154-5.052c4.949,0,8.846-3.393,8.846-7.578V16.369
		C64.652,12.184,60.756,8.791,55.807,8.791z M18.035,27.85l2.861-1.173l0.822,2.891l-0.995,2.142l8.045,3.751l9.006-4.01
		c-0.184-2.646,3.775-3.906,4.77-1.774l0.686-0.31l0.31,0.664l-1.334,0.612c-0.914-1.961-4.024-0.731-3.067,1.318l0.002,0.176
		l0.213,0.641h0.004h-0.004c0.957,2,3.897,0.282,2.981-1.68l1.326-0.716L43.971,31l-0.678,0.303
		c0.994,2.132-2.516,4.344-4.426,2.504l-6.683,3.251l10.362,4.83l-1.033,2.215l-12.156-5.669l-11.67,5.689l-0.566-1.208
		l10.474-5.303l-10.688,4.8l-0.66-1.376l9.562-4.257l-6.121-2.855l-1.423,3.047l-3.683-1.717L18.035,27.85z M42.724,57.415
		c-1.901,0.199-6.339-0.035-6.605,3.768c-0.266,3.802,8.534,5.144,8.534,5.144v3.45h-6.664c0,0-0.015-0.162-0.037-0.178
		c-1.531-1.405-4.642-2.446-8.232-2.446l-0.001-0.039c-0.879-0.02-1.797,0.017-2.742,0.175c-2.374,0.348-4.339,1.277-5.466,2.3
		c-0.022,0.014-0.045,0.188-0.067,0.188h-7.79v-3.45c0,0,8.451-0.952,8.846-4.9C22.98,56.587,16.557,50.12,3.13,49.697L3.237,47.8
		l-0.585-0.032v-1.992h36v1.13l4-0.011v0.881h20.484C62.202,49.776,56.132,56.014,42.724,57.415z"/>
</g>
</svg>
