<?xml version="1.0" encoding="utf-8"?>
<!-- Generator: Adobe Illustrator 16.0.0, SVG Export Plug-In . SVG Version: 6.00 Build 0)  -->
<!DOCTYPE svg PUBLIC "-//W3C//DTD SVG 1.1//EN" "http://www.w3.org/Graphics/SVG/1.1/DTD/svg11.dtd">
<svg version="1.1" id="Layer_1" xmlns="http://www.w3.org/2000/svg" xmlns:xlink="http://www.w3.org/1999/xlink" x="0px" y="0px"
	 width="85.652px" height="99.776px" viewBox="0 0 85.652 99.776" enable-background="new 0 0 85.652 99.776" xml:space="preserve">
<g>
	<g>
		<path fill="#504640" stroke="#504640" stroke-miterlimit="10" d="M10.289,3.445c0.129,0.12,0.191,0.276,0.191,0.468
			c0,0.184-0.063,0.34-0.191,0.468c-0.127,0.128-0.283,0.192-0.469,0.192c-0.184,0-0.338-0.064-0.461-0.192
			C9.234,4.253,9.174,4.097,9.174,3.913c0-0.192,0.063-0.348,0.191-0.468c0.127-0.12,0.283-0.18,0.469-0.18
			C10.01,3.265,10.162,3.325,10.289,3.445z M9.498,5.953c0.088-0.088,0.199-0.132,0.336-0.132c0.135,0,0.246,0.044,0.33,0.132
			c0.084,0.088,0.125,0.2,0.125,0.336v5.628c0,0.136-0.041,0.248-0.125,0.336s-0.195,0.132-0.33,0.132
			c-0.137,0-0.248-0.044-0.336-0.132c-0.09-0.088-0.133-0.2-0.133-0.336V6.289C9.365,6.153,9.408,6.042,9.498,5.953z"/>
		<path fill="#504640" stroke="#504640" stroke-miterlimit="10" d="M11.922,17.881c0.195,0.088,0.293,0.212,0.293,0.372
			c0,0.048-0.004,0.084-0.012,0.108c-0.031,0.112-0.082,0.188-0.15,0.228c-0.066,0.04-0.162,0.06-0.281,0.06
			c-0.072,0-0.195-0.008-0.371-0.024c-0.064-0.008-0.16-0.012-0.289-0.012c-0.6,0-1.09,0.16-1.471,0.48
			c-0.379,0.32-0.568,0.736-0.568,1.248v3.588c0,0.144-0.041,0.256-0.121,0.336c-0.08,0.08-0.191,0.12-0.336,0.12
			s-0.256-0.04-0.336-0.12c-0.08-0.08-0.119-0.192-0.119-0.336v-5.652c0-0.144,0.039-0.256,0.119-0.336s0.191-0.12,0.336-0.12
			s0.256,0.04,0.336,0.12s0.121,0.192,0.121,0.336v0.528c0.23-0.336,0.527-0.596,0.887-0.78c0.361-0.184,0.748-0.276,1.164-0.276
			C11.459,17.749,11.725,17.793,11.922,17.881z"/>
		<path fill="#504640" stroke="#504640" stroke-miterlimit="10" d="M11.537,30.193c0.504,0.288,0.902,0.688,1.193,1.2
			c0.293,0.512,0.439,1.084,0.439,1.716s-0.145,1.202-0.434,1.71c-0.287,0.508-0.686,0.906-1.193,1.194s-1.078,0.432-1.709,0.432
			c-0.633,0-1.203-0.144-1.711-0.432s-0.906-0.686-1.193-1.194c-0.289-0.508-0.432-1.078-0.432-1.71s0.143-1.204,0.432-1.716
			c0.287-0.512,0.686-0.912,1.193-1.2s1.078-0.432,1.711-0.432C10.465,29.761,11.033,29.905,11.537,30.193z M8.592,30.925
			c-0.373,0.216-0.664,0.514-0.877,0.894c-0.211,0.38-0.318,0.81-0.318,1.29c0,0.472,0.107,0.898,0.318,1.278
			c0.213,0.38,0.504,0.678,0.877,0.894c0.371,0.216,0.785,0.324,1.242,0.324c0.463,0,0.879-0.108,1.248-0.324
			c0.367-0.216,0.654-0.514,0.863-0.894c0.207-0.38,0.313-0.806,0.313-1.278c0-0.48-0.105-0.91-0.313-1.29
			c-0.209-0.38-0.496-0.678-0.863-0.894c-0.369-0.216-0.785-0.324-1.248-0.324C9.377,30.601,8.963,30.709,8.592,30.925z"/>
		<path fill="#504640" stroke="#504640" stroke-miterlimit="10" d="M11.482,42.109c0.453,0.24,0.807,0.59,1.063,1.05
			s0.385,1.01,0.385,1.65v3.12c0,0.128-0.045,0.236-0.133,0.324s-0.195,0.132-0.324,0.132c-0.135,0-0.248-0.044-0.336-0.132
			s-0.131-0.196-0.131-0.324v-3.12c0-0.712-0.199-1.254-0.594-1.626c-0.396-0.372-0.914-0.558-1.555-0.558
			c-0.393,0-0.746,0.076-1.063,0.228c-0.316,0.152-0.566,0.362-0.75,0.63S7.77,44.049,7.77,44.377v3.552
			c0,0.136-0.043,0.246-0.127,0.33s-0.193,0.126-0.33,0.126c-0.135,0-0.248-0.042-0.336-0.126s-0.131-0.194-0.131-0.33v-5.64
			c0-0.136,0.043-0.248,0.131-0.336c0.088-0.088,0.201-0.132,0.336-0.132c0.137,0,0.246,0.044,0.33,0.132
			c0.084,0.088,0.127,0.2,0.127,0.336v0.408c0.264-0.296,0.584-0.528,0.959-0.696c0.377-0.168,0.785-0.252,1.225-0.252
			C10.521,41.749,11.031,41.869,11.482,42.109z"/>
		<path fill="#504640" stroke="#504640" stroke-miterlimit="10" d="M13.957,53.929c0.07,0.072,0.107,0.168,0.107,0.288
			c0,0.096-0.016,0.18-0.049,0.252l-1.871,5.616c-0.033,0.088-0.086,0.16-0.162,0.216c-0.076,0.056-0.166,0.084-0.27,0.084
			c-0.105,0-0.199-0.028-0.283-0.084c-0.084-0.056-0.137-0.128-0.162-0.216l-1.439-4.776l-1.439,4.776
			c-0.033,0.096-0.088,0.17-0.168,0.222c-0.08,0.052-0.168,0.078-0.264,0.078c-0.105,0-0.195-0.028-0.271-0.084
			c-0.076-0.056-0.133-0.128-0.174-0.216l-1.871-5.616c-0.025-0.096-0.037-0.18-0.037-0.252c0-0.264,0.129-0.396,0.385-0.396
			c0.225,0,0.375,0.116,0.455,0.348l1.537,4.68l1.416-4.668c0.031-0.112,0.086-0.2,0.162-0.264s0.174-0.096,0.293-0.096
			c0.121,0,0.219,0.032,0.295,0.096s0.129,0.152,0.162,0.264l1.379,4.644l1.525-4.656c0.08-0.232,0.227-0.348,0.443-0.348
			C13.783,53.821,13.885,53.857,13.957,53.929z"/>
		<path fill="#504640" stroke="#504640" stroke-miterlimit="10" d="M11.537,66.193c0.504,0.288,0.902,0.688,1.193,1.2
			c0.293,0.512,0.439,1.084,0.439,1.716s-0.145,1.202-0.434,1.71c-0.287,0.508-0.686,0.906-1.193,1.194s-1.078,0.432-1.709,0.432
			c-0.633,0-1.203-0.144-1.711-0.432s-0.906-0.686-1.193-1.194c-0.289-0.508-0.432-1.078-0.432-1.71s0.143-1.204,0.432-1.716
			c0.287-0.512,0.686-0.912,1.193-1.2s1.078-0.432,1.711-0.432C10.465,65.761,11.033,65.905,11.537,66.193z M8.592,66.925
			c-0.373,0.216-0.664,0.514-0.877,0.894c-0.211,0.38-0.318,0.81-0.318,1.29c0,0.472,0.107,0.898,0.318,1.278
			c0.213,0.38,0.504,0.678,0.877,0.894c0.371,0.216,0.785,0.324,1.242,0.324c0.463,0,0.879-0.108,1.248-0.324
			c0.367-0.216,0.654-0.514,0.863-0.894c0.207-0.38,0.313-0.806,0.313-1.278c0-0.48-0.105-0.91-0.313-1.29
			c-0.209-0.38-0.496-0.678-0.863-0.894c-0.369-0.216-0.785-0.324-1.248-0.324C9.377,66.601,8.963,66.709,8.592,66.925z"/>
		<path fill="#504640" stroke="#504640" stroke-miterlimit="10" d="M11.922,77.881c0.195,0.088,0.293,0.212,0.293,0.372
			c0,0.048-0.004,0.084-0.012,0.108c-0.031,0.112-0.082,0.188-0.15,0.228c-0.066,0.04-0.162,0.06-0.281,0.06
			c-0.072,0-0.195-0.008-0.371-0.024c-0.064-0.008-0.16-0.012-0.289-0.012c-0.6,0-1.09,0.16-1.471,0.48
			c-0.379,0.32-0.568,0.736-0.568,1.248v3.588c0,0.144-0.041,0.256-0.121,0.336c-0.08,0.08-0.191,0.12-0.336,0.12
			s-0.256-0.04-0.336-0.12c-0.08-0.08-0.119-0.192-0.119-0.336v-5.652c0-0.144,0.039-0.256,0.119-0.336s0.191-0.12,0.336-0.12
			s0.256,0.04,0.336,0.12s0.121,0.192,0.121,0.336v0.528c0.23-0.336,0.527-0.596,0.887-0.78c0.361-0.184,0.748-0.276,1.164-0.276
			C11.459,77.749,11.725,77.793,11.922,77.881z"/>
		<path fill="#504640" stroke="#504640" stroke-miterlimit="10" d="M12.539,96.001c0,0.12-0.055,0.228-0.168,0.324
			c-0.096,0.072-0.191,0.108-0.287,0.108c-0.129,0-0.236-0.056-0.324-0.168l-2.473-3.036l-0.898,0.816v1.884
			c0,0.136-0.043,0.246-0.127,0.33s-0.193,0.126-0.33,0.126s-0.246-0.042-0.33-0.126s-0.125-0.194-0.125-0.33v-8.46
			c0-0.136,0.041-0.246,0.125-0.33s0.193-0.126,0.33-0.126s0.246,0.042,0.33,0.126s0.127,0.194,0.127,0.33v5.46l3.383-3.06
			c0.088-0.08,0.184-0.12,0.289-0.12c0.119,0,0.219,0.048,0.299,0.144c0.088,0.104,0.133,0.2,0.133,0.288
			c0,0.112-0.053,0.212-0.156,0.3l-2.4,2.172l2.496,3.072C12.504,95.805,12.539,95.897,12.539,96.001z"/>
	</g>
	<path fill="#504640" d="M30.846,8.015c-4.949,0-8.846,3.393-8.846,7.578v70.098c0,4.185,3.896,7.578,8.846,7.578L86,98.321V1.699
		L30.846,8.015z M39.155,29.367l2.826-1.159l0.813,2.856l-0.982,2.116l7.95,3.708l8.899-3.963c-0.181-2.614,3.732-3.859,4.715-1.753
		l0.678-0.307l0.306,0.656l-1.317,0.392C62.138,29.975,59.064,31,60.009,33h0.004l0.21,0.672c0.944,2.026,3.851,0.56,2.947-1.378
		l1.311-0.565l0.305,0.682l-0.671,0.334c0.983,2.106-2.486,4.31-4.373,2.492L53.14,38.46l10.239,4.776l-1.021,2.191l-12.015-5.601
		l-11.531,5.623l-0.561-1.193l10.353-5.24l-10.563,4.743l-0.652-1.359l9.449-4.207l-6.051-2.822l-1.404,3.011l-3.641-1.697
		L39.155,29.367z M63.554,58.555c-1.878,0.196-6.494-0.02-6.759,3.738c-0.264,3.758,8.205,5.1,8.205,5.1V70h-6.128
		c0,0-0.014,0.174-0.035,0.16c-1.514-1.39-4.588-2.16-8.136-2.16c-0.001,0-0.001,0-0.002,0c-0.867,0-1.774,0.102-2.708,0.259
		c-2.348,0.343-4.289,0.904-5.402,1.914C42.565,70.188,42.543,70,42.521,70H35v-2.607c0,0,8.264-0.941,8.653-4.844
		c0.476-4.781-5.913-11.172-19.187-11.591l0.109-1.874L24,49.053V47h36v1.2l4-0.01V49h19.727C82.804,51,76.804,57.171,63.554,58.555
		z"/>
</g>
</svg>
